<?xml version="1.0" encoding="UTF-8"?>
<svg width="504px" height="200px" viewBox="0 0 504 200" version="1.1" xmlns="http://www.w3.org/2000/svg" xmlns:xlink="http://www.w3.org/1999/xlink">
    <!-- Generator: Sketch 47.1 (45422) - http://www.bohemiancoding.com/sketch -->
    <title>left</title>
    <desc>Created with Sketch.</desc>
    <defs>
        <path d="M0.718110762,45.1754654 L2.78846154,40.7946717 L2.78846154,31.2360059 C2.78846154,30.792402 2.96463365,30.3669565 3.27824204,30.0532143 L14.4942569,18.8324123 C15.1474947,18.1788957 16.2068284,18.1786697 16.8603449,18.8319075 C17.5138615,19.4851452 17.5140875,20.5444789 16.8608498,21.1979955 L6.13461538,31.928808 L6.13461538,41.1701097 C6.13461538,41.4173277 6.07982911,41.6614736 5.97419693,41.8849878 L5.57399713,42.7317973 L7.11284269,42.1087756 C7.31231785,42.0280154 7.5255004,41.9864974 7.74070388,41.9864974 L16.0407535,41.9864974 L43.615049,14.4122018 C44.7119779,13.3152729 44.7212935,11.525415 43.6454602,10.4358553 L37.6303426,4.34399203 C36.556215,3.25615983 34.7935391,3.2502417 33.7063964,4.32974475 L22.3300974,15.6260988 L23.9532521,17.2492535 C25.0444367,18.3404381 26.8133492,18.3431247 27.8946919,17.261782 L35.7309344,9.4255395 C36.3843116,8.77216232 37.4436453,8.77216232 38.0970225,9.4255395 C38.7503996,10.0789167 38.7503996,11.1382504 38.0970225,11.7916276 L30.2607799,19.6278701 C27.8710714,22.0175787 23.9834968,22.0116744 21.587164,19.6153416 L18.7767864,16.804964 C18.1217796,16.1499572 18.1236529,15.087405 18.7809652,14.4347118 L31.3486659,1.95532849 C33.7480985,-0.427242472 37.6345632,-0.414193784 40.0113814,1.99294974 L46.026499,8.08481303 C48.3971031,10.4856633 48.3768209,14.3826061 45.9811371,16.7782899 L17.9168087,44.8426183 C17.6030459,45.1563811 17.1774922,45.3326512 16.7337646,45.3326512 L8.06654152,45.3326512 L2.85863042,47.4411423 C1.44631425,48.012937 0.0670695142,46.5530471 0.718110762,45.1754654 Z M15.710656,37.9544887 C16.3598784,38.6119944 16.3531634,39.6713069 15.6956577,40.3205293 C15.038152,40.9697517 13.9788396,40.9630367 13.3296172,40.305531 L7.73255753,34.6370596 C7.08333513,33.9795539 7.09005007,32.9202415 7.74755577,32.2710191 C8.40506148,31.6217967 9.46437391,31.6285116 10.1135963,32.2860173 L15.710656,37.9544887 Z" id="path-1"></path>
        <path d="M38.6463566,3.76894533 C39.6885949,3.76894533 41.2983624,5.03660407 41.2983624,6.40415502 L41.2983624,29.7753975 C41.2983624,31.3179808 39.8397592,32.4106072 38.6463566,32.4106072 L6.42095106,32.4106072 C5.26821257,32.4106072 3.76894533,31.2702447 3.76894533,29.7612535 C3.76894533,29.7612535 3.69026916,11.1194212 3.76894533,11.1627373 C3.8476215,11.2060534 21.7778322,20.8814543 21.7778322,20.8814543 C22.2923213,21.1599149 22.9181947,21.1325108 23.4070477,20.8116181 L37.9895432,11.2343415 C38.7241488,10.7525604 38.9283532,9.76601428 38.4465722,9.03140869 C37.9639072,8.29680311 36.977361,8.09259867 36.2427554,8.57437971 L22.4585137,17.6274433 L2.93356353,7.09544451 C1.87364524,6.52349528 0.586538462,7.29169294 0.586538462,8.49570354 L0.586538462,29.7612535 C0.586538462,33.246873 3.67082112,35.593014 6.42095106,35.593014 L38.6463566,35.593014 C41.4309626,35.593014 44.4807692,33.3069851 44.4807692,29.7753975 L44.4807692,6.40415502 C44.4807692,3.09003187 41.3010144,0.586538462 38.6463566,0.586538462 L7.43401725,0.586538462 C6.55531935,0.586538462 5.84281381,1.299044 5.84281381,2.1777419 C5.84281381,3.05643979 6.55531935,3.76894533 7.43401725,3.76894533 L38.6463566,3.76894533 Z" id="path-3"></path>
        <path d="M19.4641462,0 C25.2144154,0.00903846154 30.3791731,2.51576538 33.9312885,6.49341154 C34.1315808,6.61958846 34.3015038,6.79999615 34.4162923,7.0265 C34.4284038,7.05054231 34.4397923,7.07476538 34.4504577,7.09898846 C37.2091769,10.4542462 38.8653846,14.7500462 38.8653846,19.4326923 C38.8653846,24.0493577 37.2409923,28.3787808 34.4406962,31.7812192 C34.4329231,31.7980308 34.4247885,31.8148423 34.4162923,31.8316538 C34.3056615,32.0500231 34.1438731,32.22555 33.9528,32.3510038 C32.4281923,34.0645154 30.5923,35.5173577 28.5085731,36.6198692 C27.8465962,36.9700192 27.0262654,36.7173038 26.6761154,36.0555077 C26.3259654,35.3937115 26.5786808,34.5733808 27.2404769,34.22305 C28.5640692,33.5229308 29.7712462,32.6584923 30.8403154,31.6611885 C29.3787962,31.1102038 27.7037885,30.6689462 25.8877808,30.3574808 C24.5857,35.4806615 22.3204808,38.8547192 19.44625,38.8652038 L19.4326923,38.8653846 C13.6330731,38.8653846 8.42673846,36.3246731 4.86612692,32.2956885 C4.71030385,32.1794538 4.57707692,32.0277885 4.48018462,31.8452115 C1.68241923,28.4787462 0,24.1522154 0,19.4326923 C0,14.7881885 1.64409615,10.4350846 4.47421923,7.02433077 C4.57364231,6.83271538 4.71265385,6.67472308 4.87625,6.55523462 C6.43231154,4.79653077 8.31484231,3.31042692 10.4558731,2.19345385 C11.1196577,1.8471 11.9385423,2.10451538 12.2848962,2.76848077 C12.63125,3.43226538 12.3738346,4.25115 11.71005,4.59750385 C10.3555462,5.30431154 9.12125385,6.18230769 8.03049231,7.19913462 C9.49128846,7.74939615 11.16485,8.18993077 12.9794115,8.50103462 C14.2838423,3.37369615 16.5532192,0 19.4326923,0 L19.4641462,0 Z M23.1643115,29.9990154 C21.9558692,29.8856731 20.7062115,29.8265615 19.4326923,29.8265615 C18.1591731,29.8265615 16.9095154,29.8856731 15.7010731,29.9990154 C16.6790346,33.7584731 18.0966269,36.1538462 19.4326923,36.1538462 C20.7687577,36.1538462 22.18635,33.7584731 23.1643115,29.9990154 Z M12.9776038,30.3574808 C11.1625,30.6687654 9.48839615,31.1096615 8.02741923,31.6604654 C9.96833846,33.4715923 12.3409346,34.8262769 14.9742,35.5527885 C14.1703192,34.1680962 13.4973154,32.4021615 12.9776038,30.3574808 Z M32.7671346,9.34197308 C30.9404615,10.1319346 28.7929231,10.7461885 26.4479846,11.15545 C26.8156692,13.2812962 27.0389192,15.6170154 27.0989346,18.0769231 L34.7980769,18.0769231 C35.5468231,18.0769231 36.1538462,18.6839462 36.1538462,19.4326923 C36.1538462,20.1814385 35.5468231,20.7884615 34.7980769,20.7884615 L27.0989346,20.7884615 C27.0389192,23.2456577 26.8160308,25.5790269 26.4490692,27.7028846 C28.7961769,28.1126885 30.9451615,28.7276654 32.7727385,29.5187115 C34.9202769,26.6793692 36.1538462,23.1653962 36.1538462,19.4326923 C36.1538462,15.6423231 34.8926192,12.1466077 32.7671346,9.34197308 Z M6.09680385,9.34143077 C3.94709615,12.1811346 2.71153846,15.6970962 2.71153846,19.4326923 C2.71153846,23.2207115 3.97113846,26.7144385 6.09427308,29.5179885 C7.92148846,28.7273038 10.0699308,28.1126885 12.4163154,27.7028846 C12.0493538,25.5790269 11.8264654,23.2456577 11.76645,20.7884615 L4.06730769,20.7884615 C3.31856154,20.7884615 2.71153846,20.1814385 2.71153846,19.4326923 C2.71153846,18.6839462 3.31856154,18.0769231 4.06730769,18.0769231 L11.76645,18.0769231 C11.8264654,15.6170154 12.0497154,13.2812962 12.4174,11.15545 C10.0717385,10.7460077 7.92383846,10.1317538 6.09680385,9.34143077 Z M24.3850462,20.7884615 L14.4803385,20.7884615 C14.5454154,23.1418962 14.7769808,25.3557769 15.1249615,27.3308615 C16.5201385,27.1887769 17.9634,27.1150231 19.4326923,27.1150231 C20.9021654,27.1150231 22.3454269,27.1887769 23.7404231,27.3308615 C24.0884038,25.3557769 24.3199692,23.1418962 24.3850462,20.7884615 Z M23.7391577,11.5274731 C22.3445231,11.6695577 20.9016231,11.7431308 19.4326923,11.7431308 C17.9637615,11.7431308 16.5208615,11.6695577 15.1262269,11.5274731 C14.7775231,13.5043654 14.5454154,15.7205962 14.4803385,18.0769231 L24.3850462,18.0769231 C24.3199692,15.7205962 24.0878615,13.5043654 23.7391577,11.5274731 Z M23.1625038,8.85931923 C22.1845423,5.10383846 20.7680346,2.71153846 19.4326923,2.71153846 C18.09735,2.71153846 16.6808423,5.10383846 15.7028808,8.85931923 C16.9107808,8.97266154 18.1598962,9.03159231 19.4326923,9.03159231 C20.7054885,9.03159231 21.9546038,8.97266154 23.1625038,8.85931923 Z M23.8911846,3.31259615 C24.6941615,4.69584231 25.3666231,6.45942692 25.8859731,8.50103462 C27.6996308,8.19011154 29.3724692,7.74975769 30.8325423,7.19985769 C28.8925269,5.39126154 26.5219192,4.03856538 23.8911846,3.31259615 Z" id="path-5"></path>
    </defs>
    <g id="Page-1" stroke="none" stroke-width="1" fill="none" fill-rule="evenodd">
        <g id="Artboard">
            <g id="left">
                <path d="M103.460862,38.5813637 C88.7364278,23.2212214 72.2290408,10.2745149 54.5884174,0.133053415 C54.1096161,-0.142205891 53.4983291,0.0227975596 53.2230698,0.501598937 C52.9478105,0.980400315 53.1128139,1.59168728 53.5916153,1.86694658 C71.0668116,11.9133053 87.4238113,24.7420634 102.017087,39.965385 C102.399274,40.3640724 103.032298,40.3774486 103.430985,39.9952617 C103.829673,39.6130748 103.843049,38.9800511 103.460862,38.5813637 Z M163.16689,199.111822 C167.632213,159.429686 157.183475,115.994937 133.411507,77.311407 C133.12235,76.8408685 132.506495,76.69383 132.035956,76.9829873 C131.565418,77.2721447 131.418379,77.8879998 131.707537,78.3585383 C155.251719,116.671398 165.5935,159.661538 161.179433,198.888178 C161.117676,199.436999 161.512519,199.931971 162.06134,199.993728 C162.610161,200.055486 163.105133,199.660643 163.16689,199.111822 Z" id="Combined-Shape" fill="#DCD8C5" fill-rule="nonzero" opacity="0.300000012"></path>
                <path d="M492.709773,45.6354119 C500.340761,29.8480171 504.022483,14.8218249 503.546222,0.965648536 C503.52725,0.413689737 503.064419,-0.0183816039 502.51246,0.00059018569 C501.960501,0.0195619752 501.52843,0.482392664 501.547402,1.03435146 C502.011659,14.5412943 498.407002,29.2529634 490.909093,44.7650364 C490.668746,45.2622803 490.877002,45.8602163 491.374245,46.1005639 C491.871489,46.3409114 492.469425,46.1326558 492.709773,45.6354119 Z M87.9369008,0.109958289 C55.7873164,16.5769658 26.2469826,34.7957393 0.403313723,54.0120018 C-0.039880762,54.3415425 -0.132015333,54.9679682 0.197525398,55.4111626 C0.52706613,55.8543571 1.15349179,55.9464917 1.59668628,55.616951 C27.3494095,36.4683119 56.7955195,18.3076502 88.848659,1.89004171 C89.3402155,1.63826664 89.5345967,1.03567737 89.2828216,0.544120901 C89.0310465,0.0525644376 88.4284573,-0.141816785 87.9369008,0.109958289 Z M313.684761,199.889188 C366.59526,172.663547 412.136756,140.811582 445.499376,107.991369 C445.893087,107.604059 445.898276,106.970915 445.510965,106.577203 C445.123655,106.183492 444.490511,106.178303 444.096799,106.565613 C410.886328,139.236152 365.509244,170.973125 312.769679,198.110812 C312.278594,198.363504 312.085339,198.966456 312.338032,199.457541 C312.590725,199.948626 313.193676,200.141881 313.684761,199.889188 Z" id="Combined-Shape" fill="#DCD8C5" fill-rule="nonzero" opacity="0.300000012"></path>
                <path d="M2,2 L342.473142,2 C344.151878,8.91486149 345,15.9262072 345,23 C345,53.1760602 329.525023,82.0321416 301.001061,106.458092 C300.581567,106.817318 300.532709,107.448595 300.891935,107.868089 C301.251161,108.287583 301.882438,108.33644 302.301932,107.977215 C331.240965,83.1958258 347,53.8100648 347,23 C347,15.5027177 346.068352,8.07417427 344.225709,0.755836163 L344.035402,0 L0,1.42108547e-14 L0,162.796354 C29.7772584,169.572927 60.7368525,173 92.5,173 C148.055943,173 200.914795,162.492462 244.504874,143.345472 C245.010528,143.123363 245.240386,142.533394 245.018277,142.02774 C244.796168,141.522086 244.2062,141.292228 243.700546,141.514337 C200.371,160.546887 147.785938,171 92.5,171 C61.1691291,171 30.6280348,167.65041 2,161.199496 L2,2 Z" id="Combined-Shape" fill="#DCD8C5" fill-rule="nonzero" opacity="0.300000012"></path>
                <g id="Icons/oah-1.5/oah-edit-pen" transform="translate(90.000000, 39.000000)">
                    <g id="fills" transform="translate(0.461538, 0.692308)">
                        <mask id="mask-2" fill="white">
                            <use xlink:href="#path-1"></use>
                        </mask>
                        <use id="Combined-Shape" fill="#DCD8C5" fill-rule="nonzero" xlink:href="#path-1"></use>
                    </g>
                </g>
                <g id="Icons/oah-1.5/oah-mail" transform="translate(442.000000, 56.000000)">
                    <g id="fills" transform="translate(0.230769, 0.461538)">
                        <mask id="mask-4" fill="white">
                            <use xlink:href="#path-3"></use>
                        </mask>
                        <use id="Page-1" fill="#DCD8C5" xlink:href="#path-3"></use>
                    </g>
                </g>
                <g id="Icons/oah-1.5/oah-web" transform="translate(255.000000, 109.000000)">
                    <g id="fills" transform="translate(0.615385, 0.615385)">
                        <mask id="mask-6" fill="white">
                            <use xlink:href="#path-5"></use>
                        </mask>
                        <use id="Page-1" fill="#DCD8C5" xlink:href="#path-5"></use>
                    </g>
                </g>
            </g>
        </g>
    </g>
</svg>