<?xml version="1.0" encoding="UTF-8"?>
<svg width="487px" height="200px" viewBox="0 0 487 200" version="1.1" xmlns="http://www.w3.org/2000/svg" xmlns:xlink="http://www.w3.org/1999/xlink">
    <!-- Generator: Sketch 47.1 (45422) - http://www.bohemiancoding.com/sketch -->
    <title>right</title>
    <desc>Created with Sketch.</desc>
    <defs>
        <path d="M3.75961538,26.5996505 C3.75961538,28.7152231 5.4812154,30.4325898 7.61373719,30.4325898 C8.48995818,30.4325898 9.20027565,31.1429073 9.20027565,32.0191283 C9.20027565,32.8953493 8.48995818,33.6056667 7.61373719,33.6056667 C3.7305198,33.6056667 0.586538462,30.4694162 0.586538462,26.5996505 L0.586538462,7.59255467 C0.586538462,3.72344024 3.74386306,0.586538462 7.62277651,0.586538462 L34.7092609,0.586538462 C38.5919913,0.586538462 41.7454989,3.72428783 41.7454989,7.59255467 L41.7454989,26.5996505 C41.7454989,30.4774603 38.6114588,33.6056667 34.7136839,33.6056667 L20.0286414,33.6056667 L21.1504935,33.1409804 L12.5975178,41.6939561 C11.977936,42.3135379 10.9733954,42.3135379 10.3538136,41.6939561 C9.73423177,41.0743743 9.73423177,40.0698337 10.3538136,39.4502519 L18.9067893,30.8972762 C19.204323,30.5997425 19.6078653,30.4325898 20.0286414,30.4325898 L34.7136839,30.4325898 C36.8603389,30.4325898 38.572422,28.7236935 38.572422,26.5996505 L38.572422,7.59255467 C38.572422,5.48029803 36.8430978,3.75961538 34.7092609,3.75961538 L7.62277651,3.75961538 C5.49171213,3.75961538 3.75961538,5.48050824 3.75961538,7.59255467 L3.75961538,26.5996505 Z M10.6346154,16.4519231 C8.51923077,16.4519231 8.51923077,13.2788462 10.6346154,13.2788462 L31.7884615,13.2788462 C33.9038462,13.2788462 33.9038462,16.4519231 31.7884615,16.4519231 L10.6346154,16.4519231 Z M10.6346154,22.7980769 C8.51923077,22.7980769 8.51923077,19.625 10.6346154,19.625 L23.3269231,19.625 C25.4423077,19.625 25.4423077,22.7980769 23.3269231,22.7980769 L10.6346154,22.7980769 Z" id="path-1"></path>
        <path d="M42.16337,44.8129155 L46.6051898,40.3710957 C48.8740842,38.1022013 48.8681407,34.4149342 46.5938892,32.1406826 L43.6059832,29.1527766 C41.3373636,26.884157 37.6475643,26.8916791 35.3786041,29.1606393 L33.883063,30.6561805 C33.1910265,31.348217 29.67492,29.4457172 24.5312584,24.3020556 C19.3902401,19.1610373 17.4864207,15.6409638 18.1771335,14.950251 L19.6726747,13.4547098 C21.9494434,11.177941 21.9591581,7.50595157 19.6805374,5.2273308 L16.6926313,2.23942475 C14.4170316,-0.0361749238 10.7330784,-0.0427360061 8.46221827,2.22812413 L1.71398463,9.04333388 C-1.34336671,12.1006578 4.74982479,23.6534894 14.9982991,33.9019636 C20.3605433,39.2642079 25.8860563,43.3812282 30.6862184,45.8262213 C31.4669904,46.2239124 32.4223236,45.9133641 32.8200148,45.132592 C33.2177059,44.35182 32.9071576,43.3964868 32.1263855,42.9987956 C27.6354155,40.7112915 22.3771077,36.7933639 17.2420033,31.6582594 C12.2802238,26.69648 8.45505054,21.6203322 6.12936712,17.2107829 C4.40972654,13.9503047 3.82947292,11.4152266 3.96321704,11.2814825 L10.7114507,4.46627276 C11.7358264,3.44192442 13.4107055,3.44490736 14.4489271,4.48312896 L17.4368332,7.47103501 C18.4736249,8.50782677 18.4692255,10.1707506 17.4289705,11.2110056 L15.9334293,12.7065468 C13.2750929,15.3648831 15.8293147,20.0875203 22.2875542,26.5457598 C28.7489932,33.0071987 33.4667582,35.5598936 36.1267672,32.8998847 L37.6223084,31.4043435 C38.6541481,30.3725037 40.3348755,30.3690773 41.3622789,31.3964808 L44.350185,34.3843868 C45.3868892,35.4210911 45.3895943,37.0992828 44.3614856,38.1273915 L39.9196658,42.5692113 C39.300084,43.1887931 39.300084,44.1933337 39.9196658,44.8129155 C40.5392476,45.4324973 41.5437882,45.4324973 42.16337,44.8129155 Z" id="path-3"></path>
        <path d="M40.0288462,55.6346154 C40.0288462,60.9137982 35.8403406,68.4898464 29.0640494,77.4583041 C28.4782042,78.2336734 27.3747217,78.387313 26.5993524,77.8014678 C25.8239831,77.2156225 25.6703435,76.1121401 26.2561887,75.3367708 C32.5445519,67.0140884 36.5096154,59.8421958 36.5096154,55.6346154 C36.5096154,46.8883367 29.4193556,39.7980769 20.6730769,39.7980769 C11.9267982,39.7980769 4.83653846,46.8883367 4.83653846,55.6346154 C4.83653846,58.2123927 6.38445877,62.0596753 9.19242784,66.7260878 C10.377675,68.6957862 11.7614204,70.77062 13.3035617,72.915005 C15.2025335,75.5555714 17.2404116,78.1641926 19.2784061,80.622889 C19.9916146,81.4833247 20.6534696,82.2630608 21.2467067,82.9475561 C21.6007375,83.3560477 21.8518168,83.6404682 21.9827075,83.7863304 C22.631757,84.5096194 22.571574,85.6221196 21.848285,86.2711691 C21.124996,86.9202186 20.0124958,86.8600355 19.3634463,86.1367465 C19.2193971,85.9762207 18.9549641,85.6766733 18.5872776,85.2524253 C17.9776527,84.5490212 17.2991757,83.7497027 16.5689497,82.8687365 C14.4828456,80.3519993 12.3966251,77.6814966 10.4464383,74.9697144 C8.85151451,72.7519342 7.41553383,70.598777 6.17703016,68.5405745 C3.06233128,63.3644243 1.31730769,59.0272508 1.31730769,55.6346154 C1.31730769,44.9447192 9.98318076,36.2788462 20.6730769,36.2788462 C31.3629731,36.2788462 40.0288462,44.9447192 40.0288462,55.6346154 Z M28.2980769,55.6346154 C28.2980769,59.8457866 24.8842481,63.2596154 20.6730769,63.2596154 C16.4619057,63.2596154 13.0480769,59.8457866 13.0480769,55.6346154 C13.0480769,51.4234442 16.4619057,48.0096154 20.6730769,48.0096154 C24.8842481,48.0096154 28.2980769,51.4234442 28.2980769,55.6346154 Z M16.5673077,55.6346154 C16.5673077,57.9021691 18.4055232,59.7403846 20.6730769,59.7403846 C22.9406307,59.7403846 24.7788462,57.9021691 24.7788462,55.6346154 C24.7788462,53.3670617 22.9406307,51.5288462 20.6730769,51.5288462 C18.4055232,51.5288462 16.5673077,53.3670617 16.5673077,55.6346154 Z" id="path-5"></path>
    </defs>
    <g id="Page-1" stroke="none" stroke-width="1" fill="none" fill-rule="evenodd">
        <g id="Artboard" transform="translate(-1.000000, 0.000000)">
            <g id="right">
                <path d="M414.194577,119.229314 C438.942927,125.975354 463.842051,128.243242 487.095461,126.013265 C487.645224,125.960543 488.048155,125.472133 487.995433,124.922371 C487.942712,124.372608 487.454302,123.969677 486.904539,124.022399 C463.895707,126.228921 439.23914,123.983126 414.720557,117.299717 C414.187713,117.154472 413.638014,117.468682 413.492768,118.001526 C413.347523,118.534369 413.661733,119.084069 414.194577,119.229314 Z M277.21542,1.28906881 C286.462507,31.9126215 309.101236,61.5686872 340.863798,84.4507216 C341.311909,84.7735449 341.936875,84.671979 342.259698,84.2238679 C342.582521,83.7757568 342.480956,83.1507909 342.032844,82.8279677 C310.61041,60.1909639 288.243006,30.8903263 279.130036,0.710931195 C278.970388,0.182224407 278.412366,-0.116956616 277.883659,0.0426916767 C277.354952,0.202339969 277.055771,0.760362017 277.21542,1.28906881 Z" id="Combined-Shape" fill="#DCD8C5" fill-rule="nonzero" opacity="0.300000012"></path>
                <path d="M18.48613,105.612397 C29.298838,141.485851 59.3202369,174.270735 103.960027,199.867503 C104.439135,200.142227 105.050238,199.976541 105.324962,199.497432 C105.599686,199.018324 105.434,198.407221 104.954891,198.132497 C60.724266,172.770348 31.0496104,140.364125 20.4010365,105.03522 C20.2416536,104.506433 19.6837817,104.206972 19.1549949,104.366355 C18.626208,104.525738 18.326747,105.08361 18.48613,105.612397 Z M43.3713098,0.362850846 C37.9081752,6.97144347 33.169283,13.774275 29.1871114,20.7372222 C28.9129279,21.2166404 29.0793034,21.8275553 29.5587216,22.1017389 C30.0381399,22.3759224 30.6490548,22.2095468 30.9232383,21.7301286 C34.8475506,14.8683502 39.521109,8.1593075 44.9127909,1.63714915 C45.2646786,1.21148092 45.2048677,0.581147237 44.7791995,0.229259476 C44.3535312,-0.122628285 43.7231976,-0.0628173915 43.3713098,0.362850846 Z" id="Combined-Shape" fill="#DCD8C5" fill-rule="nonzero" opacity="0.300000012"></path>
                <path d="M165.089996,154.700078 C151.849598,169.402536 141.152949,184.170679 133.359007,198.522776 C133.095443,199.008113 133.275226,199.615218 133.760564,199.878781 C134.245901,200.142345 134.853006,199.962562 135.11657,199.477224 C142.831433,185.270749 153.436391,170.629196 166.576172,156.038465 C166.945758,155.628068 166.912674,154.995768 166.502277,154.626183 C166.091881,154.256598 165.459581,154.289682 165.089996,154.700078 Z M487.06078,10.5005773 C432.697957,7.190264 361.945615,24.8318171 293.515627,59.6986374 C268.107241,72.6448572 244.302738,87.2964533 222.808024,103.128236 C222.36334,103.455765 222.268367,104.081766 222.595896,104.52645 C222.923424,104.971133 223.549426,105.066106 223.99411,104.738578 C245.40025,88.9720334 269.111689,74.3777174 294.423608,61.4806505 C362.555727,26.7656022 432.96294,9.21010414 486.93922,12.4968796 C487.490483,12.5304477 487.964583,12.1107725 487.998151,11.5595088 C488.031719,11.0082452 487.612044,10.5341454 487.06078,10.5005773 Z" id="Combined-Shape" fill="#DCD8C5" fill-rule="nonzero" opacity="0.300000012"></path>
                <g id="Icons/oah-1.5/oah-bubbles" transform="translate(354.000000, 87.000000)">
                    <g id="fills" transform="translate(0.346154, 0.346154)">
                        <mask id="mask-2" fill="white">
                            <use xlink:href="#path-1"></use>
                        </mask>
                        <use id="Combined-Shape" fill="#DCD8C5" fill-rule="nonzero" xlink:href="#path-1"></use>
                    </g>
                </g>
                <g id="Icons/oah-1.5/oah-call" transform="translate(174.000000, 103.000000)">
                    <g id="Fills" transform="translate(0.115385, 0.230769)">
                        <mask id="mask-4" fill="white">
                            <use xlink:href="#path-3"></use>
                        </mask>
                        <use id="Combined-Shape" fill="#DCD8C5" fill-rule="nonzero" xlink:href="#path-3"></use>
                    </g>
                </g>
                <g id="Icons/oah-1.5/oah-location" transform="translate(0.000000, 35.000000)">
                    <g id="fills" transform="translate(0.730769, 0.692308)"></g>
                </g>
                <mask id="mask-6" fill="white">
                    <use xlink:href="#path-5"></use>
                </mask>
                <use id="Combined-Shape" fill="#DCD8C5" fill-rule="nonzero" xlink:href="#path-5"></use>
            </g>
        </g>
    </g>
</svg>